<mxfile host="app.diagrams.net" modified="2023-10-06T16:00:57.718Z" agent="Mozilla/5.0 (Macintosh; Intel Mac OS X 10_15_7) AppleWebKit/537.36 (KHTML, like Gecko) Chrome/117.0.0.0 Safari/537.36" etag="VO0muG2-lLJnpujz_TcO" version="22.0.3" type="github">
  <diagram name="Page-1" id="DjkAw7XGQzpZr8emeJHv">
    <mxGraphModel dx="957" dy="696" grid="1" gridSize="10" guides="1" tooltips="1" connect="1" arrows="1" fold="1" page="1" pageScale="1" pageWidth="827" pageHeight="1169" math="0" shadow="0">
      <root>
        <mxCell id="0" />
        <mxCell id="1" parent="0" />
        <mxCell id="kHUCV_6R6X-Z7UpYBtfR-1" value="Home" style="rounded=1;fillColor=none;strokeColor=none;html=1;fontColor=#596780;align=left;fontSize=11;spacingLeft=10;fontSize=11;sketch=1;hachureGap=4;pointerEvents=0;fontFamily=Architects Daughter;fontSource=https%3A%2F%2Ffonts.googleapis.com%2Fcss%3Ffamily%3DArchitects%2BDaughter;" vertex="1" parent="1">
          <mxGeometry x="240" y="120" width="100" height="20" as="geometry" />
        </mxCell>
        <mxCell id="kHUCV_6R6X-Z7UpYBtfR-2" value="User &amp;amp; QR" style="rounded=1;fillColor=#253858;strokeColor=none;html=1;fontColor=#ffffff;align=left;fontSize=12;spacingLeft=10;sketch=0;hachureGap=4;pointerEvents=0;fontFamily=Architects Daughter;fontSource=https%3A%2F%2Ffonts.googleapis.com%2Fcss%3Ffamily%3DArchitects%2BDaughter;" vertex="1" parent="1">
          <mxGeometry x="240" y="140" width="100" height="33" as="geometry" />
        </mxCell>
        <mxCell id="kHUCV_6R6X-Z7UpYBtfR-3" value="" style="shape=triangle;direction=south;fillColor=#ffffff;strokeColor=none;html=1;sketch=1;hachureGap=4;pointerEvents=0;fontFamily=Architects Daughter;fontSource=https%3A%2F%2Ffonts.googleapis.com%2Fcss%3Ffamily%3DArchitects%2BDaughter;fontSize=20;" vertex="1" parent="kHUCV_6R6X-Z7UpYBtfR-2">
          <mxGeometry x="1" y="0.5" width="12" height="6" relative="1" as="geometry">
            <mxPoint x="-20" y="-3" as="offset" />
          </mxGeometry>
        </mxCell>
        <mxCell id="kHUCV_6R6X-Z7UpYBtfR-4" value="" style="rounded=1;fillColor=#ffffff;strokeColor=#DFE1E5;shadow=1;html=1;arcSize=4;sketch=1;hachureGap=4;pointerEvents=0;fontFamily=Architects Daughter;fontSource=https%3A%2F%2Ffonts.googleapis.com%2Fcss%3Ffamily%3DArchitects%2BDaughter;fontSize=20;" vertex="1" parent="1">
          <mxGeometry x="240" y="176" width="110" height="34" as="geometry" />
        </mxCell>
        <mxCell id="kHUCV_6R6X-Z7UpYBtfR-5" value="Asset Manager" style="rounded=0;fillColor=#F4F5F7;strokeColor=none;shadow=0;html=1;align=left;fontSize=12;spacingLeft=10;fontColor=#253858;resizeWidth=1;sketch=1;hachureGap=4;pointerEvents=0;fontFamily=Architects Daughter;fontSource=https%3A%2F%2Ffonts.googleapis.com%2Fcss%3Ffamily%3DArchitects%2BDaughter;" vertex="1" parent="kHUCV_6R6X-Z7UpYBtfR-4">
          <mxGeometry width="110" height="33" relative="1" as="geometry">
            <mxPoint y="6" as="offset" />
          </mxGeometry>
        </mxCell>
        <mxCell id="kHUCV_6R6X-Z7UpYBtfR-9" value="Home" style="rounded=1;fillColor=none;strokeColor=none;html=1;fontColor=#596780;align=left;fontSize=11;spacingLeft=10;fontSize=11;sketch=1;hachureGap=4;pointerEvents=0;fontFamily=Architects Daughter;fontSource=https%3A%2F%2Ffonts.googleapis.com%2Fcss%3Ffamily%3DArchitects%2BDaughter;" vertex="1" parent="1">
          <mxGeometry x="460" y="120" width="100" height="20" as="geometry" />
        </mxCell>
        <mxCell id="kHUCV_6R6X-Z7UpYBtfR-10" value="User Manager" style="rounded=1;fillColor=#476BA8;strokeColor=none;html=1;fontColor=#ffffff;align=left;fontSize=12;spacingLeft=10;sketch=0;hachureGap=4;pointerEvents=0;fontFamily=Architects Daughter;fontSource=https%3A%2F%2Ffonts.googleapis.com%2Fcss%3Ffamily%3DArchitects%2BDaughter;" vertex="1" parent="1">
          <mxGeometry x="460" y="140" width="110" height="33" as="geometry" />
        </mxCell>
        <mxCell id="kHUCV_6R6X-Z7UpYBtfR-12" value="" style="rounded=1;fillColor=#ffffff;strokeColor=#DFE1E5;shadow=1;html=1;arcSize=4;sketch=1;hachureGap=4;pointerEvents=0;fontFamily=Architects Daughter;fontSource=https%3A%2F%2Ffonts.googleapis.com%2Fcss%3Ffamily%3DArchitects%2BDaughter;fontSize=20;" vertex="1" parent="1">
          <mxGeometry x="460" y="176" width="110" height="34" as="geometry" />
        </mxCell>
        <mxCell id="kHUCV_6R6X-Z7UpYBtfR-13" value="QR Manager" style="rounded=0;fillColor=#F4F5F7;strokeColor=none;shadow=0;html=1;align=left;fontSize=12;spacingLeft=10;fontColor=#253858;resizeWidth=1;sketch=1;hachureGap=4;pointerEvents=0;fontFamily=Architects Daughter;fontSource=https%3A%2F%2Ffonts.googleapis.com%2Fcss%3Ffamily%3DArchitects%2BDaughter;" vertex="1" parent="kHUCV_6R6X-Z7UpYBtfR-12">
          <mxGeometry width="110" height="33" relative="1" as="geometry">
            <mxPoint y="6" as="offset" />
          </mxGeometry>
        </mxCell>
        <mxCell id="kHUCV_6R6X-Z7UpYBtfR-14" value="Home" style="rounded=1;fillColor=none;strokeColor=none;html=1;fontColor=#596780;align=left;fontSize=11;spacingLeft=10;fontSize=11;sketch=1;hachureGap=4;pointerEvents=0;fontFamily=Architects Daughter;fontSource=https%3A%2F%2Ffonts.googleapis.com%2Fcss%3Ffamily%3DArchitects%2BDaughter;" vertex="1" parent="1">
          <mxGeometry x="650" y="120" width="100" height="20" as="geometry" />
        </mxCell>
        <mxCell id="kHUCV_6R6X-Z7UpYBtfR-15" value="Create User" style="rounded=1;fillColor=#5C8AD9;strokeColor=none;html=1;fontColor=#ffffff;align=left;fontSize=12;spacingLeft=10;sketch=0;hachureGap=4;pointerEvents=0;fontFamily=Architects Daughter;fontSource=https%3A%2F%2Ffonts.googleapis.com%2Fcss%3Ffamily%3DArchitects%2BDaughter;" vertex="1" parent="1">
          <mxGeometry x="650" y="140" width="110" height="33" as="geometry" />
        </mxCell>
        <mxCell id="kHUCV_6R6X-Z7UpYBtfR-16" value="" style="rounded=1;fillColor=#ffffff;strokeColor=#DFE1E5;shadow=1;html=1;arcSize=4;sketch=1;hachureGap=4;pointerEvents=0;fontFamily=Architects Daughter;fontSource=https%3A%2F%2Ffonts.googleapis.com%2Fcss%3Ffamily%3DArchitects%2BDaughter;fontSize=20;" vertex="1" parent="1">
          <mxGeometry x="650" y="176" width="110" height="34" as="geometry" />
        </mxCell>
        <mxCell id="kHUCV_6R6X-Z7UpYBtfR-17" value="Delete User" style="rounded=0;fillColor=#F4F5F7;strokeColor=none;shadow=0;html=1;align=left;fontSize=12;spacingLeft=10;fontColor=#253858;resizeWidth=1;sketch=1;hachureGap=4;pointerEvents=0;fontFamily=Architects Daughter;fontSource=https%3A%2F%2Ffonts.googleapis.com%2Fcss%3Ffamily%3DArchitects%2BDaughter;" vertex="1" parent="kHUCV_6R6X-Z7UpYBtfR-16">
          <mxGeometry width="110" height="33" relative="1" as="geometry">
            <mxPoint y="6" as="offset" />
          </mxGeometry>
        </mxCell>
        <mxCell id="kHUCV_6R6X-Z7UpYBtfR-18" value="&lt;font color=&quot;#000000&quot;&gt;Finance_Access&lt;/font&gt;" style="rounded=1;fillColor=#D6D7D9;strokeColor=none;html=1;whiteSpace=wrap;fontColor=#596780;align=center;verticalAlign=middle;fontStyle=0;fontSize=12;sketch=0;" vertex="1" parent="1">
          <mxGeometry x="50" y="143" width="110" height="33" as="geometry" />
        </mxCell>
        <mxCell id="kHUCV_6R6X-Z7UpYBtfR-19" value="Create Permission Group" style="rounded=1;fillColor=none;strokeColor=none;html=1;fontColor=#596780;align=left;fontSize=11;spacingLeft=10;fontSize=11;sketch=1;hachureGap=4;pointerEvents=0;fontFamily=Architects Daughter;fontSource=https%3A%2F%2Ffonts.googleapis.com%2Fcss%3Ffamily%3DArchitects%2BDaughter;" vertex="1" parent="1">
          <mxGeometry x="40" y="120" width="100" height="20" as="geometry" />
        </mxCell>
        <mxCell id="kHUCV_6R6X-Z7UpYBtfR-22" value="" style="shape=triangle;direction=south;fillColor=#ffffff;strokeColor=none;html=1;sketch=1;hachureGap=4;pointerEvents=0;fontFamily=Architects Daughter;fontSource=https%3A%2F%2Ffonts.googleapis.com%2Fcss%3Ffamily%3DArchitects%2BDaughter;fontSize=20;" vertex="1" parent="1">
          <mxGeometry x="557" y="153.5" width="12" height="16.5" as="geometry" />
        </mxCell>
        <mxCell id="kHUCV_6R6X-Z7UpYBtfR-24" value="" style="shape=triangle;direction=south;fillColor=#ffffff;strokeColor=none;html=1;sketch=1;hachureGap=4;pointerEvents=0;fontFamily=Architects Daughter;fontSource=https%3A%2F%2Ffonts.googleapis.com%2Fcss%3Ffamily%3DArchitects%2BDaughter;fontSize=20;" vertex="1" parent="1">
          <mxGeometry x="743" y="151.25" width="12" height="11.75" as="geometry" />
        </mxCell>
      </root>
    </mxGraphModel>
  </diagram>
</mxfile>
